# Alias OBJ Model File
# Exported from SketchUp, (c) 2000-2012 Trimble Navigation Limited
# File units = millimeters

mtllib moveObject.mtl

g Mesh1 Group1 Model

usemtl Color_A06
v 2240.16 2807.01 -3096.69
vt 31.6535 108.229
vn 0 0 1
v 2654.16 1655 -3096.69
vt 47.9528 62.874
v 3044.16 1655 -3096.69
vt 63.3071 62.874
f 1/1/1 2/2/1 3/3/1

v 1826.16 1655 -3096.69
vt 15.3543 62.874
f 2/2/1 1/1/1 4/4/1

v 1436.16 1655 -3096.69
vt 0 62.874
f 4/4/1 1/1/1 5/5/1

v 1826.16 366 -3096.69
vt 15.3543 12.126
f 6/6/1 2/2/1 4/4/1

v 2654.16 366 -3096.69
vt 47.9528 12.126
f 6/6/1 7/7/1 2/2/1

v 1861.82 281.212 -3096.69
vt 16.7584 8.78788
f 8/8/1 7/7/1 6/6/1

v 2618.5 281.212 -3096.69
vt 46.5487 8.78788
f 8/8/1 9/9/1 7/7/1

v 1914.62 205.89 -3096.69
vt 18.837 5.82245
f 10/10/1 9/9/1 8/8/1

v 2565.7 205.89 -3096.69
vt 44.4701 5.82245
f 10/10/1 11/11/1 9/9/1

v 1982.16 143.445 -3096.69
vt 21.496 3.36399
f 12/12/1 11/11/1 10/10/1

v 2498.16 143.445 -3096.69
vt 41.8111 3.36399
f 12/12/1 13/13/1 11/11/1

v 2061.38 96.7055 -3096.69
vt 24.615 1.52384
f 14/14/1 13/13/1 12/12/1

v 2418.94 96.7055 -3096.69
vt 38.6921 1.52384
f 14/14/1 15/15/1 13/13/1

v 2148.7 67.7872 -3096.69
vt 28.0527 0.385322
f 16/16/1 15/15/1 14/14/1

v 2331.62 67.7872 -3096.69
vt 35.2544 0.385322
f 16/16/1 17/17/1 15/15/1

v 2240.16 58 -3096.69
vt 31.6535 0
f 17/17/1 16/16/1 18/18/1

g Mesh2 Group2 Model

v 3044.16 -2310 -3096.69
vt 63.3071 45.3549
v 2654.16 -2310 -3096.69
vt 47.9528 45.3549
v 2240.16 -3462.01 -3096.69
f 19/19/1 20/20/1 21/18/1

v 1826.16 -2310 -3096.69
vt 15.3543 45.3549
f 22/21/1 21/18/1 20/20/1

v 1436.16 -2310 -3096.69
vt 0 45.3549
f 21/18/1 22/21/1 23/22/1

v 2654.16 -1021 -3096.69
vt 47.9528 96.1029
f 24/23/1 22/21/1 20/20/1

v 1826.16 -1021 -3096.69
vt 15.3543 96.1029
f 22/21/1 24/23/1 25/24/1

v 2618.5 -936.212 -3096.69
vt 46.5487 99.441
f 25/24/1 24/23/1 26/25/1

v 1861.82 -936.212 -3096.69
vt 16.7584 99.441
f 25/24/1 26/25/1 27/26/1

v 2565.7 -860.89 -3096.69
vt 44.4701 102.406
f 27/26/1 26/25/1 28/27/1

v 1914.62 -860.89 -3096.69
vt 18.837 102.406
f 27/26/1 28/27/1 29/28/1

v 2498.16 -798.445 -3096.69
vt 41.8111 104.865
f 29/28/1 28/27/1 30/29/1

v 1982.16 -798.445 -3096.69
vt 21.496 104.865
f 29/28/1 30/29/1 31/30/1

v 2418.94 -751.706 -3096.69
vt 38.6921 106.705
f 31/30/1 30/29/1 32/31/1

v 2061.38 -751.706 -3096.69
vt 24.615 106.705
f 31/30/1 32/31/1 33/32/1

v 2331.62 -722.787 -3096.69
vt 35.2544 107.844
f 33/32/1 32/31/1 34/33/1

v 2148.7 -722.787 -3096.69
vt 28.0527 107.844
f 33/32/1 34/33/1 35/34/1

v 2240.16 -713 -3096.69
f 35/34/1 34/33/1 36/1/1

g Mesh3 Group3 Model

v 5391.92 -331.013 -3201.12
v 4239.91 -745.013 -3201.12
v 4239.91 -1135.01 -3201.12
f 37/1/1 38/2/1 39/3/1

v 4239.91 82.9867 -3201.12
f 38/2/1 37/1/1 40/4/1

v 4239.91 472.987 -3201.12
f 40/4/1 37/1/1 41/5/1

v 2950.91 82.9867 -3201.12
f 42/6/1 38/2/1 40/4/1

v 2950.91 -745.013 -3201.12
f 42/6/1 43/7/1 38/2/1

v 2866.12 47.3236 -3201.12
f 44/8/1 43/7/1 42/6/1

v 2866.12 -709.35 -3201.12
f 44/8/1 45/9/1 43/7/1

v 2790.8 -5.47269 -3201.12
f 46/10/1 45/9/1 44/8/1

v 2790.8 -656.554 -3201.12
f 46/10/1 47/11/1 45/9/1

v 2728.35 -73.0114 -3201.12
f 48/12/1 47/11/1 46/10/1

v 2728.35 -589.015 -3201.12
f 48/12/1 49/13/1 47/11/1

v 2681.61 -152.234 -3201.12
f 50/14/1 49/13/1 48/12/1

v 2681.61 -509.793 -3201.12
f 50/14/1 51/15/1 49/13/1

v 2652.69 -239.553 -3201.12
f 52/16/1 51/15/1 50/14/1

v 2652.69 -422.474 -3201.12
f 52/16/1 53/17/1 51/15/1

v 2642.91 -331.013 -3201.12
f 53/17/1 52/16/1 54/18/1

g Mesh4 Group4 Model

v 274.907 -1141.01 -3201.12
v 274.907 -751.013 -3201.12
v -877.107 -337.013 -3201.12
f 55/19/1 56/20/1 57/18/1

v 274.907 76.9867 -3201.12
f 58/21/1 57/18/1 56/20/1

v 274.907 466.987 -3201.12
f 57/18/1 58/21/1 59/22/1

v 1563.91 -751.013 -3201.12
f 60/23/1 58/21/1 56/20/1

v 1563.91 76.9867 -3201.12
f 58/21/1 60/23/1 61/24/1

v 1648.69 -715.35 -3201.12
f 61/24/1 60/23/1 62/25/1

v 1648.69 41.3236 -3201.12
f 61/24/1 62/25/1 63/26/1

v 1724.02 -662.554 -3201.12
f 63/26/1 62/25/1 64/27/1

v 1724.02 -11.4727 -3201.12
f 63/26/1 64/27/1 65/28/1

v 1786.46 -595.015 -3201.12
f 65/28/1 64/27/1 66/29/1

v 1786.46 -79.0114 -3201.12
f 65/28/1 66/29/1 67/30/1

v 1833.2 -515.793 -3201.12
f 67/30/1 66/29/1 68/31/1

v 1833.2 -158.234 -3201.12
f 67/30/1 68/31/1 69/32/1

v 1862.12 -428.474 -3201.12
f 69/32/1 68/31/1 70/33/1

v 1862.12 -245.553 -3201.12
f 69/32/1 70/33/1 71/34/1

v 1871.91 -337.013 -3201.12
f 71/34/1 70/33/1 72/1/1

